# xmcd CD database file
#
# Track frame offsets:
#	150
#	10905
#	27300
#
# Disc length: 616 seconds
#
# Revision: 1
# Processed by: cddbd v1.5PL3 Copyright (c) Steve Scherf et al.
# Submitted via: CDex 1.51
#
DISCID=19026603
DTITLE=山本正之 - 憧れの遣唐使航路
DYEAR=1996
DGENRE=JPop
TTITLE0=憧れの遣唐使航路
TTITLE1=ああ時代劇
TTITLE2=明治維新シンフォニー
EXTD=YEAR: 1996
EXTT0=
EXTT1=
EXTT2=
PLAYORDER=
